<svg width="390" height="190" viewBox="0 0 390 190" fill="none" xmlns="http://www.w3.org/2000/svg">
<path d="M75.4591 161.024C76.1333 161.024 76.6806 160.95 77.1012 160.801C77.899 160.517 78.298 159.988 78.298 159.215C78.298 158.763 78.1 158.414 77.7042 158.167C77.3084 157.925 76.6868 157.712 75.8395 157.526L74.3922 157.202C72.9697 156.88 71.9863 156.531 71.442 156.153C70.5205 155.522 70.0597 154.536 70.0597 153.194C70.0597 151.969 70.505 150.952 71.3956 150.142C72.2862 149.331 73.5944 148.926 75.3199 148.926C76.761 148.926 77.9887 149.31 79.003 150.077C80.0236 150.837 80.5585 151.944 80.608 153.398H77.8619C77.8125 152.575 77.4537 151.991 76.7858 151.645C76.3404 151.416 75.7869 151.301 75.1251 151.301C74.3891 151.301 73.8015 151.45 73.3624 151.747C72.9233 152.043 72.7037 152.458 72.7037 152.99C72.7037 153.478 72.9202 153.843 73.3531 154.084C73.6315 154.245 74.2252 154.434 75.1344 154.65L77.4908 155.216C78.5237 155.464 79.303 155.795 79.8287 156.209C80.6451 156.852 81.0533 157.783 81.0533 159.001C81.0533 160.251 80.574 161.29 79.6153 162.119C78.6629 162.941 77.3146 163.353 75.5704 163.353C73.7892 163.353 72.3883 162.947 71.3678 162.137C70.3473 161.321 69.837 160.201 69.837 158.779H72.5646C72.6512 159.403 72.8212 159.87 73.0748 160.18C73.5387 160.743 74.3334 161.024 75.4591 161.024ZM86.5396 161.117V163.093L85.2871 163.139C84.0378 163.182 83.1843 162.966 82.7266 162.49C82.4297 162.187 82.2813 161.72 82.2813 161.089V154.864H80.8711V152.98H82.2813V150.16H84.8975V152.98H86.5396V154.864H84.8975V160.208C84.8975 160.622 84.9501 160.882 85.0552 160.987C85.1604 161.086 85.482 161.135 86.0201 161.135C86.1005 161.135 86.184 161.135 86.2705 161.135C86.3633 161.129 86.453 161.123 86.5396 161.117ZM87.5727 153.982C88.2716 153.092 89.4715 152.646 91.1723 152.646C92.2794 152.646 93.2628 152.866 94.1225 153.305C94.9822 153.744 95.4121 154.573 95.4121 155.792V160.43C95.4121 160.752 95.4183 161.141 95.4306 161.599C95.4492 161.945 95.5017 162.181 95.5883 162.304C95.6749 162.428 95.8048 162.53 95.978 162.61V163H93.102C93.0216 162.796 92.9659 162.604 92.935 162.425C92.9041 162.245 92.8794 162.041 92.8608 161.812C92.4959 162.208 92.0753 162.545 91.5991 162.824C91.0301 163.152 90.3868 163.315 89.6694 163.315C88.754 163.315 87.9964 163.056 87.3964 162.536C86.8027 162.01 86.5058 161.268 86.5058 160.31C86.5058 159.066 86.9851 158.167 87.9438 157.61C88.4695 157.307 89.2426 157.09 90.2631 156.96L91.163 156.849C91.6517 156.787 92.0011 156.71 92.2114 156.617C92.5887 156.456 92.7773 156.206 92.7773 155.866C92.7773 155.451 92.632 155.167 92.3413 155.012C92.0568 154.851 91.6362 154.771 91.0795 154.771C90.4549 154.771 90.0127 154.926 89.7529 155.235C89.5673 155.464 89.4436 155.773 89.3818 156.163H86.8305C86.8862 155.278 87.1336 154.551 87.5727 153.982ZM89.5395 161.089C89.7869 161.293 90.09 161.395 90.4487 161.395C91.0177 161.395 91.5403 161.228 92.0166 160.894C92.499 160.56 92.7495 159.951 92.768 159.066V158.083C92.601 158.188 92.4309 158.275 92.2578 158.343C92.0908 158.405 91.8588 158.463 91.562 158.519L90.9682 158.63C90.4116 158.729 90.0127 158.85 89.7714 158.992C89.3632 159.233 89.1591 159.608 89.1591 160.115C89.1591 160.566 89.2859 160.891 89.5395 161.089ZM100.833 160.347L102.921 152.888H105.732L102.262 162.833C101.594 164.75 101.065 165.938 100.676 166.396C100.286 166.859 99.5067 167.091 98.3378 167.091C98.1027 167.091 97.9141 167.088 97.7719 167.082C97.6296 167.082 97.4162 167.073 97.1317 167.054V164.939L97.4657 164.958C97.7255 164.97 97.9729 164.961 98.2079 164.93C98.4429 164.899 98.6408 164.828 98.8016 164.716C98.9563 164.611 99.0985 164.392 99.2284 164.058C99.3645 163.724 99.4201 163.52 99.3954 163.445L95.6844 152.888H98.6254L100.833 160.347ZM119.246 156.515H116.537C116.488 156.138 116.361 155.798 116.157 155.495C115.86 155.086 115.399 154.882 114.775 154.882C113.884 154.882 113.275 155.325 112.947 156.209C112.774 156.679 112.687 157.304 112.687 158.083C112.687 158.825 112.774 159.422 112.947 159.874C113.262 160.715 113.856 161.135 114.728 161.135C115.347 161.135 115.786 160.968 116.046 160.634C116.305 160.3 116.463 159.867 116.519 159.335H119.218C119.157 160.139 118.866 160.9 118.346 161.618C117.518 162.774 116.29 163.353 114.663 163.353C113.037 163.353 111.84 162.87 111.073 161.905C110.306 160.94 109.923 159.688 109.923 158.148C109.923 156.41 110.346 155.059 111.194 154.094C112.041 153.129 113.21 152.646 114.7 152.646C115.968 152.646 117.004 152.931 117.808 153.5C118.619 154.069 119.098 155.074 119.246 156.515ZM128.462 154.168C129.316 155.238 129.742 156.503 129.742 157.962C129.742 159.447 129.316 160.718 128.462 161.775C127.609 162.827 126.313 163.353 124.575 163.353C122.837 163.353 121.541 162.827 120.688 161.775C119.834 160.718 119.407 159.447 119.407 157.962C119.407 156.503 119.834 155.238 120.688 154.168C121.541 153.098 122.837 152.563 124.575 152.563C126.313 152.563 127.609 153.098 128.462 154.168ZM124.566 154.799C123.792 154.799 123.196 155.074 122.775 155.625C122.361 156.169 122.153 156.948 122.153 157.962C122.153 158.977 122.361 159.759 122.775 160.31C123.196 160.86 123.792 161.135 124.566 161.135C125.339 161.135 125.932 160.86 126.347 160.31C126.761 159.759 126.968 158.977 126.968 157.962C126.968 156.948 126.761 156.169 126.347 155.625C125.932 155.074 125.339 154.799 124.566 154.799ZM135.358 154.845C134.462 154.845 133.846 155.226 133.512 155.986C133.339 156.388 133.253 156.902 133.253 157.526V163H130.618V152.906H133.169V154.381C133.509 153.862 133.831 153.488 134.134 153.259C134.678 152.851 135.368 152.646 136.203 152.646C137.248 152.646 138.101 152.922 138.763 153.472C139.431 154.016 139.765 154.923 139.765 156.19V163H137.056V156.849C137.056 156.317 136.985 155.909 136.843 155.625C136.583 155.105 136.088 154.845 135.358 154.845ZM145.929 154.845C145.032 154.845 144.416 155.226 144.082 155.986C143.909 156.388 143.823 156.902 143.823 157.526V163H141.188V152.906H143.739V154.381C144.079 153.862 144.401 153.488 144.704 153.259C145.248 152.851 145.938 152.646 146.773 152.646C147.818 152.646 148.672 152.922 149.333 153.472C150.001 154.016 150.335 154.923 150.335 156.19V163H147.626V156.849C147.626 156.317 147.555 155.909 147.413 155.625C147.153 155.105 146.659 154.845 145.929 154.845ZM160.395 160.031C160.327 160.631 160.015 161.24 159.458 161.859C158.593 162.842 157.38 163.334 155.822 163.334C154.535 163.334 153.4 162.92 152.417 162.091C151.433 161.262 150.942 159.914 150.942 158.046C150.942 156.296 151.384 154.953 152.268 154.02C153.159 153.086 154.313 152.619 155.729 152.619C156.57 152.619 157.328 152.776 158.002 153.092C158.676 153.407 159.233 153.905 159.672 154.585C160.068 155.185 160.324 155.881 160.442 156.673C160.51 157.137 160.538 157.805 160.525 158.677H153.604C153.642 159.691 153.96 160.402 154.56 160.811C154.925 161.064 155.364 161.191 155.877 161.191C156.422 161.191 156.864 161.036 157.204 160.727C157.39 160.56 157.553 160.328 157.696 160.031H160.395ZM157.779 156.933C157.736 156.234 157.523 155.705 157.139 155.346C156.762 154.981 156.292 154.799 155.729 154.799C155.117 154.799 154.64 154.991 154.3 155.374C153.966 155.757 153.756 156.277 153.669 156.933H157.779ZM170.019 156.515H167.31C167.261 156.138 167.134 155.798 166.93 155.495C166.633 155.086 166.172 154.882 165.548 154.882C164.657 154.882 164.048 155.325 163.72 156.209C163.547 156.679 163.46 157.304 163.46 158.083C163.46 158.825 163.547 159.422 163.72 159.874C164.035 160.715 164.629 161.135 165.501 161.135C166.12 161.135 166.559 160.968 166.819 160.634C167.078 160.3 167.236 159.867 167.292 159.335H169.992C169.93 160.139 169.639 160.9 169.119 161.618C168.291 162.774 167.063 163.353 165.436 163.353C163.81 163.353 162.613 162.87 161.846 161.905C161.079 160.94 160.696 159.688 160.696 158.148C160.696 156.41 161.119 155.059 161.967 154.094C162.814 153.129 163.983 152.646 165.473 152.646C166.741 152.646 167.777 152.931 168.581 153.5C169.392 154.069 169.871 155.074 170.019 156.515ZM175.431 161.117V163.093L174.179 163.139C172.93 163.182 172.076 162.966 171.618 162.49C171.322 162.187 171.173 161.72 171.173 161.089V154.864H169.763V152.98H171.173V150.16H173.789V152.98H175.431V154.864H173.789V160.208C173.789 160.622 173.842 160.882 173.947 160.987C174.052 161.086 174.374 161.135 174.912 161.135C174.992 161.135 175.076 161.135 175.162 161.135C175.255 161.129 175.345 161.123 175.431 161.117ZM184.74 160.031C184.672 160.631 184.36 161.24 183.803 161.859C182.937 162.842 181.725 163.334 180.166 163.334C178.88 163.334 177.745 162.92 176.761 162.091C175.778 161.262 175.286 159.914 175.286 158.046C175.286 156.296 175.729 154.953 176.613 154.02C177.504 153.086 178.657 152.619 180.073 152.619C180.915 152.619 181.672 152.776 182.346 153.092C183.02 153.407 183.577 153.905 184.016 154.585C184.412 155.185 184.669 155.881 184.786 156.673C184.854 157.137 184.882 157.805 184.87 158.677H177.949C177.986 159.691 178.305 160.402 178.904 160.811C179.269 161.064 179.708 161.191 180.222 161.191C180.766 161.191 181.208 161.036 181.548 160.727C181.734 160.56 181.898 160.328 182.04 160.031H184.74ZM182.124 156.933C182.08 156.234 181.867 155.705 181.484 155.346C181.106 154.981 180.636 154.799 180.073 154.799C179.461 154.799 178.985 154.991 178.645 155.374C178.311 155.757 178.1 156.277 178.014 156.933H182.124ZM194.818 149.344V163H192.249V161.599C191.871 162.199 191.441 162.635 190.959 162.907C190.477 163.179 189.877 163.315 189.159 163.315C187.978 163.315 186.982 162.839 186.172 161.887C185.368 160.928 184.966 159.7 184.966 158.204C184.966 156.478 185.362 155.12 186.153 154.131C186.951 153.141 188.015 152.646 189.345 152.646C189.957 152.646 190.501 152.783 190.978 153.055C191.454 153.321 191.84 153.692 192.137 154.168V149.344H194.818ZM187.693 158.009C187.693 158.943 187.879 159.688 188.25 160.245C188.615 160.807 189.172 161.089 189.92 161.089C190.668 161.089 191.237 160.811 191.627 160.254C192.017 159.697 192.212 158.977 192.212 158.092C192.212 156.855 191.899 155.971 191.274 155.439C190.891 155.117 190.446 154.957 189.939 154.957C189.165 154.957 188.596 155.25 188.232 155.838C187.873 156.419 187.693 157.143 187.693 158.009ZM205.058 161.117V163.093L203.806 163.139C202.556 163.182 201.703 162.966 201.245 162.49C200.948 162.187 200.8 161.72 200.8 161.089V154.864H199.39V152.98H200.8V150.16H203.416V152.98H205.058V154.864H203.416V160.208C203.416 160.622 203.468 160.882 203.574 160.987C203.679 161.086 204 161.135 204.538 161.135C204.619 161.135 204.702 161.135 204.789 161.135C204.882 161.129 204.971 161.123 205.058 161.117ZM214.849 157.062V163H212.149V156.849C212.149 156.305 212.056 155.866 211.871 155.532C211.63 155.062 211.172 154.827 210.498 154.827C209.799 154.827 209.267 155.062 208.902 155.532C208.543 155.996 208.364 156.66 208.364 157.526V163H205.729V149.372H208.364V154.205C208.748 153.618 209.19 153.209 209.691 152.98C210.198 152.745 210.73 152.628 211.286 152.628C211.911 152.628 212.477 152.736 212.984 152.953C213.498 153.169 213.918 153.5 214.246 153.945C214.524 154.323 214.694 154.712 214.756 155.114C214.818 155.51 214.849 156.16 214.849 157.062ZM221.365 155.328C220.301 155.328 219.587 155.674 219.222 156.367C219.018 156.756 218.916 157.356 218.916 158.167V163H216.253V152.888H218.777V154.65C219.185 153.976 219.54 153.515 219.844 153.268C220.338 152.854 220.982 152.646 221.773 152.646C221.823 152.646 221.863 152.65 221.894 152.656C221.931 152.656 222.008 152.659 222.126 152.665V155.374C221.959 155.355 221.81 155.343 221.68 155.337C221.551 155.331 221.445 155.328 221.365 155.328ZM231.072 154.168C231.926 155.238 232.353 156.503 232.353 157.962C232.353 159.447 231.926 160.718 231.072 161.775C230.219 162.827 228.923 163.353 227.185 163.353C225.447 163.353 224.152 162.827 223.298 161.775C222.445 160.718 222.018 159.447 222.018 157.962C222.018 156.503 222.445 155.238 223.298 154.168C224.152 153.098 225.447 152.563 227.185 152.563C228.923 152.563 230.219 153.098 231.072 154.168ZM227.176 154.799C226.403 154.799 225.806 155.074 225.385 155.625C224.971 156.169 224.764 156.948 224.764 157.962C224.764 158.977 224.971 159.759 225.385 160.31C225.806 160.86 226.403 161.135 227.176 161.135C227.949 161.135 228.543 160.86 228.957 160.31C229.372 159.759 229.579 158.977 229.579 157.962C229.579 156.948 229.372 156.169 228.957 155.625C228.543 155.074 227.949 154.799 227.176 154.799ZM239.694 161.571C239.67 161.602 239.608 161.695 239.509 161.85C239.41 162.004 239.292 162.14 239.156 162.258C238.742 162.629 238.34 162.882 237.95 163.019C237.567 163.155 237.115 163.223 236.596 163.223C235.099 163.223 234.091 162.685 233.571 161.608C233.281 161.015 233.135 160.139 233.135 158.983V152.888H235.844V158.983C235.844 159.558 235.912 159.991 236.048 160.282C236.29 160.795 236.763 161.052 237.468 161.052C238.371 161.052 238.989 160.687 239.323 159.957C239.497 159.561 239.583 159.039 239.583 158.389V152.888H242.264V163H239.694V161.571ZM246.637 164.772C246.922 165.013 247.401 165.134 248.075 165.134C249.028 165.134 249.665 164.815 249.986 164.178C250.197 163.77 250.302 163.083 250.302 162.119V161.469C250.048 161.902 249.776 162.227 249.485 162.443C248.96 162.845 248.276 163.046 247.435 163.046C246.136 163.046 245.097 162.592 244.318 161.683C243.545 160.767 243.158 159.53 243.158 157.972C243.158 156.469 243.532 155.207 244.281 154.187C245.029 153.16 246.09 152.646 247.463 152.646C247.97 152.646 248.412 152.724 248.79 152.878C249.433 153.144 249.952 153.633 250.348 154.344V152.888H252.918V162.48C252.918 163.785 252.698 164.769 252.259 165.431C251.505 166.569 250.057 167.138 247.918 167.138C246.625 167.138 245.57 166.884 244.754 166.377C243.938 165.87 243.486 165.112 243.399 164.104H246.275C246.35 164.413 246.47 164.636 246.637 164.772ZM246.192 159.549C246.551 160.402 247.194 160.829 248.122 160.829C248.74 160.829 249.263 160.597 249.689 160.133C250.116 159.663 250.33 158.918 250.33 157.897C250.33 156.939 250.126 156.209 249.717 155.708C249.315 155.207 248.774 154.957 248.094 154.957C247.166 154.957 246.526 155.393 246.173 156.265C245.988 156.729 245.895 157.301 245.895 157.981C245.895 158.569 245.994 159.091 246.192 159.549ZM263.488 157.062V163H260.789V156.849C260.789 156.305 260.696 155.866 260.51 155.532C260.269 155.062 259.811 154.827 259.137 154.827C258.438 154.827 257.906 155.062 257.541 155.532C257.183 155.996 257.003 156.66 257.003 157.526V163H254.369V149.372H257.003V154.205C257.387 153.618 257.829 153.209 258.33 152.98C258.837 152.745 259.369 152.628 259.926 152.628C260.55 152.628 261.116 152.736 261.623 152.953C262.137 153.169 262.557 153.5 262.885 153.945C263.164 154.323 263.334 154.712 263.395 155.114C263.457 155.51 263.488 156.16 263.488 157.062ZM274.841 155.671C274.618 155.182 274.182 154.938 273.533 154.938C272.778 154.938 272.271 155.182 272.012 155.671C271.869 155.949 271.798 156.364 271.798 156.914V163H269.117V152.906H271.687V154.381C272.015 153.856 272.324 153.481 272.615 153.259C273.128 152.863 273.793 152.665 274.609 152.665C275.382 152.665 276.007 152.835 276.483 153.175C276.867 153.491 277.157 153.896 277.355 154.391C277.702 153.797 278.131 153.361 278.645 153.083C279.189 152.804 279.795 152.665 280.463 152.665C280.908 152.665 281.348 152.752 281.781 152.925C282.213 153.098 282.606 153.401 282.959 153.834C283.243 154.187 283.435 154.619 283.534 155.133C283.596 155.473 283.627 155.971 283.627 156.626L283.608 163H280.899V156.562C280.899 156.178 280.837 155.863 280.714 155.615C280.479 155.145 280.046 154.91 279.415 154.91C278.685 154.91 278.181 155.213 277.903 155.819C277.76 156.141 277.689 156.528 277.689 156.979V163H275.027V156.979C275.027 156.379 274.965 155.943 274.841 155.671ZM291.507 161.571C291.482 161.602 291.42 161.695 291.321 161.85C291.222 162.004 291.105 162.14 290.968 162.258C290.554 162.629 290.152 162.882 289.762 163.019C289.379 163.155 288.927 163.223 288.408 163.223C286.911 163.223 285.903 162.685 285.383 161.608C285.093 161.015 284.947 160.139 284.947 158.983V152.888H287.656V158.983C287.656 159.558 287.724 159.991 287.861 160.282C288.102 160.795 288.575 161.052 289.28 161.052C290.183 161.052 290.801 160.687 291.135 159.957C291.309 159.561 291.395 159.039 291.395 158.389V152.888H294.076V163H291.507V161.571ZM302.559 153.352C303.351 153.859 303.805 154.731 303.923 155.968H301.279C301.242 155.628 301.146 155.359 300.991 155.161C300.701 154.802 300.206 154.623 299.507 154.623C298.932 154.623 298.52 154.712 298.273 154.892C298.032 155.071 297.911 155.281 297.911 155.522C297.911 155.826 298.041 156.045 298.301 156.181C298.561 156.323 299.479 156.568 301.056 156.914C302.108 157.161 302.896 157.536 303.422 158.037C303.942 158.544 304.201 159.178 304.201 159.938C304.201 160.94 303.827 161.76 303.079 162.397C302.337 163.028 301.186 163.343 299.628 163.343C298.038 163.343 296.863 163.009 296.102 162.341C295.348 161.667 294.97 160.811 294.97 159.771H297.651C297.707 160.242 297.828 160.576 298.013 160.773C298.341 161.126 298.947 161.302 299.832 161.302C300.351 161.302 300.762 161.225 301.066 161.07C301.375 160.916 301.529 160.684 301.529 160.375C301.529 160.078 301.406 159.852 301.158 159.697C300.911 159.543 299.992 159.277 298.403 158.899C297.259 158.615 296.452 158.259 295.982 157.833C295.512 157.412 295.276 156.806 295.276 156.014C295.276 155.08 295.641 154.279 296.371 153.611C297.107 152.937 298.14 152.6 299.47 152.6C300.732 152.6 301.761 152.851 302.559 153.352ZM307.841 152.888V163H305.16V152.888H307.841ZM307.841 149.242V151.682H305.16V149.242H307.841ZM318.115 156.515H315.406C315.356 156.138 315.229 155.798 315.025 155.495C314.728 155.086 314.268 154.882 313.643 154.882C312.752 154.882 312.143 155.325 311.815 156.209C311.642 156.679 311.556 157.304 311.556 158.083C311.556 158.825 311.642 159.422 311.815 159.874C312.131 160.715 312.725 161.135 313.597 161.135C314.215 161.135 314.654 160.968 314.914 160.634C315.174 160.3 315.332 159.867 315.387 159.335H318.087C318.025 160.139 317.734 160.9 317.215 161.618C316.386 162.774 315.158 163.353 313.532 163.353C311.905 163.353 310.708 162.87 309.941 161.905C309.174 160.94 308.791 159.688 308.791 158.148C308.791 156.41 309.215 155.059 310.062 154.094C310.909 153.129 312.078 152.646 313.569 152.646C314.837 152.646 315.873 152.931 316.677 153.5C317.487 154.069 317.966 155.074 318.115 156.515ZM318.851 160.235H321.662V163H318.851V160.235ZM50.542 183.024C51.2162 183.024 51.7635 182.95 52.1841 182.801C52.9819 182.517 53.3809 181.988 53.3809 181.215C53.3809 180.763 53.183 180.414 52.7871 180.167C52.3913 179.925 51.7697 179.712 50.9224 179.526L49.4751 179.202C48.0526 178.88 47.0692 178.531 46.5249 178.153C45.6034 177.522 45.1426 176.536 45.1426 175.194C45.1426 173.969 45.5879 172.952 46.4785 172.142C47.3692 171.331 48.6773 170.926 50.4028 170.926C51.8439 170.926 53.0716 171.31 54.086 172.077C55.1065 172.837 55.6415 173.944 55.6909 175.398H52.9448C52.8954 174.575 52.5366 173.991 51.8687 173.645C51.4234 173.416 50.8698 173.301 50.208 173.301C49.472 173.301 48.8845 173.45 48.4453 173.747C48.0062 174.043 47.7866 174.458 47.7866 174.99C47.7866 175.478 48.0031 175.843 48.4361 176.084C48.7144 176.245 49.3081 176.434 50.2173 176.65L52.5737 177.216C53.6066 177.464 54.3859 177.795 54.9116 178.209C55.728 178.852 56.1362 179.783 56.1362 181.001C56.1362 182.251 55.6569 183.29 54.6983 184.119C53.7458 184.941 52.3975 185.353 50.6533 185.353C48.8721 185.353 47.4712 184.947 46.4507 184.137C45.4302 183.321 44.9199 182.201 44.9199 180.779H47.6475C47.7341 181.403 47.9041 181.87 48.1577 182.18C48.6216 182.743 49.4164 183.024 50.542 183.024ZM65.6489 182.031C65.5808 182.631 65.2685 183.24 64.7119 183.859C63.846 184.842 62.6337 185.334 61.0751 185.334C59.7887 185.334 58.6537 184.92 57.6703 184.091C56.6869 183.262 56.1952 181.914 56.1952 180.046C56.1952 178.296 56.6375 176.953 57.5219 176.02C58.4125 175.086 59.566 174.619 60.9824 174.619C61.8235 174.619 62.5812 174.776 63.2553 175.092C63.9295 175.407 64.4861 175.905 64.9252 176.585C65.3211 177.185 65.5777 177.881 65.6952 178.673C65.7633 179.137 65.7911 179.805 65.7787 180.677H58.8578C58.895 181.691 59.2135 182.402 59.8134 182.811C60.1783 183.064 60.6175 183.191 61.1308 183.191C61.6751 183.191 62.1173 183.036 62.4575 182.727C62.643 182.56 62.8069 182.328 62.9492 182.031H65.6489ZM63.0327 178.933C62.9894 178.234 62.776 177.705 62.3925 177.346C62.0152 176.981 61.5452 176.799 60.9824 176.799C60.3701 176.799 59.8938 176.991 59.5536 177.374C59.2197 177.757 59.0094 178.277 58.9228 178.933H63.0327ZM75.18 182.031C75.112 182.631 74.7997 183.24 74.243 183.859C73.3771 184.842 72.1649 185.334 70.6063 185.334C69.3198 185.334 68.1849 184.92 67.2015 184.091C66.2181 183.262 65.7264 181.914 65.7264 180.046C65.7264 178.296 66.1686 176.953 67.0531 176.02C67.9437 175.086 69.0972 174.619 70.5135 174.619C71.3547 174.619 72.1123 174.776 72.7865 175.092C73.4606 175.407 74.0173 175.905 74.4564 176.585C74.8522 177.185 75.1089 177.881 75.2264 178.673C75.2945 179.137 75.3223 179.805 75.3099 180.677H68.389C68.4261 181.691 68.7447 182.402 69.3446 182.811C69.7095 183.064 70.1486 183.191 70.662 183.191C71.2062 183.191 71.6485 183.036 71.9886 182.727C72.1742 182.56 72.3381 182.328 72.4803 182.031H75.18ZM72.5638 178.933C72.5205 178.234 72.3072 177.705 71.9237 177.346C71.5464 176.981 71.0764 176.799 70.5135 176.799C69.9012 176.799 69.425 176.991 69.0848 177.374C68.7508 177.757 68.5405 178.277 68.454 178.933H72.5638ZM87.9709 185L86.3845 177.634L84.7795 185H82.0334L79.1945 174.888H82.0334L83.6105 182.143L85.0671 174.888H87.7482L89.2883 182.17L90.8654 174.888H93.6208L90.6892 185H87.9709ZM103.18 179.062V185H100.48V178.849C100.48 178.305 100.387 177.866 100.202 177.532C99.9606 177.062 99.5029 176.827 98.8287 176.827C98.1298 176.827 97.5979 177.062 97.233 177.532C96.8743 177.996 96.6949 178.66 96.6949 179.526V185H94.0602V171.372H96.6949V176.205C97.0784 175.618 97.5206 175.209 98.0216 174.98C98.5288 174.745 99.0607 174.628 99.6173 174.628C100.242 174.628 100.808 174.736 101.315 174.953C101.828 175.169 102.249 175.5 102.577 175.945C102.855 176.323 103.025 176.712 103.087 177.114C103.149 177.51 103.18 178.16 103.18 179.062ZM104.992 175.982C105.691 175.092 106.891 174.646 108.592 174.646C109.699 174.646 110.682 174.866 111.542 175.305C112.402 175.744 112.832 176.573 112.832 177.792V182.43C112.832 182.752 112.838 183.141 112.85 183.599C112.869 183.945 112.921 184.181 113.008 184.304C113.094 184.428 113.224 184.53 113.397 184.61V185H110.522C110.441 184.796 110.385 184.604 110.355 184.425C110.324 184.245 110.299 184.041 110.28 183.812C109.915 184.208 109.495 184.545 109.019 184.824C108.45 185.152 107.806 185.315 107.089 185.315C106.174 185.315 105.416 185.056 104.816 184.536C104.222 184.01 103.925 183.268 103.925 182.31C103.925 181.066 104.405 180.167 105.363 179.61C105.889 179.307 106.662 179.09 107.683 178.96L108.583 178.849C109.071 178.787 109.421 178.71 109.631 178.617C110.008 178.456 110.197 178.206 110.197 177.866C110.197 177.451 110.051 177.167 109.761 177.012C109.476 176.851 109.056 176.771 108.499 176.771C107.874 176.771 107.432 176.926 107.172 177.235C106.987 177.464 106.863 177.773 106.801 178.163H104.25C104.306 177.278 104.553 176.551 104.992 175.982ZM106.959 183.089C107.206 183.293 107.509 183.395 107.868 183.395C108.437 183.395 108.96 183.228 109.436 182.894C109.918 182.56 110.169 181.951 110.188 181.066V180.083C110.021 180.188 109.85 180.275 109.677 180.343C109.51 180.405 109.278 180.463 108.981 180.519L108.388 180.63C107.831 180.729 107.432 180.85 107.191 180.992C106.783 181.233 106.579 181.608 106.579 182.115C106.579 182.566 106.705 182.891 106.959 183.089ZM118.772 183.117V185.093L117.52 185.139C116.271 185.182 115.417 184.966 114.959 184.49C114.663 184.187 114.514 183.72 114.514 183.089V176.864H113.104V174.98H114.514V172.16H117.13V174.98H118.772V176.864H117.13V182.208C117.13 182.622 117.183 182.882 117.288 182.987C117.393 183.086 117.715 183.135 118.253 183.135C118.333 183.135 118.417 183.135 118.503 183.135C118.596 183.129 118.686 183.123 118.772 183.117ZM127.778 182.347L129.866 174.888H132.677L129.207 184.833C128.539 186.75 128.01 187.938 127.62 188.396C127.231 188.859 126.451 189.091 125.283 189.091C125.047 189.091 124.859 189.088 124.717 189.082C124.574 189.082 124.361 189.073 124.076 189.054V186.939L124.41 186.958C124.67 186.97 124.918 186.961 125.153 186.93C125.388 186.899 125.586 186.828 125.746 186.716C125.901 186.611 126.043 186.392 126.173 186.058C126.309 185.724 126.365 185.52 126.34 185.445L122.629 174.888H125.57L127.778 182.347ZM141.633 176.168C142.486 177.238 142.913 178.503 142.913 179.962C142.913 181.447 142.486 182.718 141.633 183.775C140.779 184.827 139.483 185.353 137.745 185.353C136.007 185.353 134.712 184.827 133.858 183.775C133.005 182.718 132.578 181.447 132.578 179.962C132.578 178.503 133.005 177.238 133.858 176.168C134.712 175.098 136.007 174.563 137.745 174.563C139.483 174.563 140.779 175.098 141.633 176.168ZM137.736 176.799C136.963 176.799 136.366 177.074 135.946 177.625C135.531 178.169 135.324 178.948 135.324 179.962C135.324 180.977 135.531 181.759 135.946 182.31C136.366 182.86 136.963 183.135 137.736 183.135C138.509 183.135 139.103 182.86 139.517 182.31C139.932 181.759 140.139 180.977 140.139 179.962C140.139 178.948 139.932 178.169 139.517 177.625C139.103 177.074 138.509 176.799 137.736 176.799ZM150.255 183.571C150.23 183.602 150.168 183.695 150.069 183.85C149.97 184.004 149.853 184.14 149.716 184.258C149.302 184.629 148.9 184.882 148.51 185.019C148.127 185.155 147.675 185.223 147.156 185.223C145.659 185.223 144.651 184.685 144.131 183.608C143.841 183.015 143.695 182.139 143.695 180.983V174.888H146.404V180.983C146.404 181.558 146.472 181.991 146.609 182.282C146.85 182.795 147.323 183.052 148.028 183.052C148.931 183.052 149.549 182.687 149.883 181.957C150.057 181.561 150.143 181.039 150.143 180.389V174.888H152.824V185H150.255V183.571ZM159.424 177.328C158.36 177.328 157.646 177.674 157.281 178.367C157.077 178.756 156.975 179.356 156.975 180.167V185H154.312V174.888H156.836V176.65C157.244 175.976 157.599 175.515 157.902 175.268C158.397 174.854 159.04 174.646 159.832 174.646C159.882 174.646 159.922 174.65 159.953 174.656C159.99 174.656 160.067 174.659 160.185 174.665V177.374C160.018 177.355 159.869 177.343 159.739 177.337C159.609 177.331 159.504 177.328 159.424 177.328ZM169.682 171.242V173.394C169.534 173.375 169.283 173.363 168.931 173.357C168.584 173.345 168.343 173.422 168.207 173.589C168.077 173.75 168.012 173.929 168.012 174.127V174.98H169.747V176.845H168.012V185H165.377V176.845H163.902V174.98H165.35V174.331C165.35 173.249 165.532 172.503 165.897 172.095C166.28 171.489 167.205 171.186 168.671 171.186C168.838 171.186 168.989 171.192 169.125 171.205C169.261 171.211 169.447 171.223 169.682 171.242ZM175.307 177.328C174.244 177.328 173.529 177.674 173.164 178.367C172.96 178.756 172.858 179.356 172.858 180.167V185H170.196V174.888H172.719V176.65C173.127 175.976 173.483 175.515 173.786 175.268C174.281 174.854 174.924 174.646 175.716 174.646C175.765 174.646 175.805 174.65 175.836 174.656C175.873 174.656 175.951 174.659 176.068 174.665V177.374C175.901 177.355 175.753 177.343 175.623 177.337C175.493 177.331 175.388 177.328 175.307 177.328ZM179.3 174.888V185H176.619V174.888H179.3ZM179.3 171.242V173.682H176.619V171.242H179.3ZM189.481 182.031C189.413 182.631 189.1 183.24 188.544 183.859C187.678 184.842 186.465 185.334 184.907 185.334C183.62 185.334 182.486 184.92 181.502 184.091C180.519 183.262 180.027 181.914 180.027 180.046C180.027 178.296 180.469 176.953 181.354 176.02C182.244 175.086 183.398 174.619 184.814 174.619C185.655 174.619 186.413 174.776 187.087 175.092C187.761 175.407 188.318 175.905 188.757 176.585C189.153 177.185 189.409 177.881 189.527 178.673C189.595 179.137 189.623 179.805 189.611 180.677H182.69C182.727 181.691 183.045 182.402 183.645 182.811C184.01 183.064 184.449 183.191 184.963 183.191C185.507 183.191 185.949 183.036 186.289 182.727C186.475 182.56 186.639 182.328 186.781 182.031H189.481ZM186.864 178.933C186.821 178.234 186.608 177.705 186.224 177.346C185.847 176.981 185.377 176.799 184.814 176.799C184.202 176.799 183.726 176.991 183.385 177.374C183.051 177.757 182.841 178.277 182.755 178.933H186.864ZM195.115 176.845C194.219 176.845 193.603 177.226 193.269 177.986C193.096 178.388 193.009 178.902 193.009 179.526V185H190.375V174.906H192.926V176.381C193.266 175.862 193.588 175.488 193.891 175.259C194.435 174.851 195.125 174.646 195.96 174.646C197.005 174.646 197.858 174.922 198.52 175.472C199.188 176.016 199.522 176.923 199.522 178.19V185H196.813V178.849C196.813 178.317 196.742 177.909 196.6 177.625C196.34 177.105 195.845 176.845 195.115 176.845ZM210.129 171.344V185H207.56V183.599C207.182 184.199 206.752 184.635 206.27 184.907C205.788 185.179 205.188 185.315 204.47 185.315C203.289 185.315 202.293 184.839 201.483 183.887C200.679 182.928 200.277 181.7 200.277 180.204C200.277 178.478 200.673 177.12 201.464 176.131C202.262 175.141 203.326 174.646 204.656 174.646C205.268 174.646 205.812 174.783 206.289 175.055C206.765 175.321 207.151 175.692 207.448 176.168V171.344H210.129ZM203.004 180.009C203.004 180.943 203.19 181.688 203.561 182.245C203.926 182.807 204.483 183.089 205.231 183.089C205.979 183.089 206.548 182.811 206.938 182.254C207.328 181.697 207.522 180.977 207.522 180.092C207.522 178.855 207.21 177.971 206.585 177.439C206.202 177.117 205.757 176.957 205.25 176.957C204.476 176.957 203.907 177.25 203.542 177.838C203.184 178.419 203.004 179.143 203.004 180.009ZM218.464 175.352C219.255 175.859 219.71 176.731 219.828 177.968H217.184C217.146 177.628 217.051 177.359 216.896 177.161C216.605 176.802 216.11 176.623 215.412 176.623C214.836 176.623 214.425 176.712 214.178 176.892C213.936 177.071 213.816 177.281 213.816 177.522C213.816 177.826 213.946 178.045 214.205 178.181C214.465 178.323 215.384 178.568 216.961 178.914C218.012 179.161 218.801 179.536 219.327 180.037C219.846 180.544 220.106 181.178 220.106 181.938C220.106 182.94 219.732 183.76 218.983 184.397C218.241 185.028 217.091 185.343 215.532 185.343C213.943 185.343 212.768 185.009 212.007 184.341C211.252 183.667 210.875 182.811 210.875 181.771H213.556C213.612 182.242 213.732 182.576 213.918 182.773C214.246 183.126 214.852 183.302 215.736 183.302C216.256 183.302 216.667 183.225 216.97 183.07C217.279 182.916 217.434 182.684 217.434 182.375C217.434 182.078 217.31 181.852 217.063 181.697C216.816 181.543 215.897 181.277 214.308 180.899C213.163 180.615 212.356 180.259 211.886 179.833C211.416 179.412 211.181 178.806 211.181 178.014C211.181 177.08 211.546 176.279 212.276 175.611C213.012 174.937 214.045 174.6 215.374 174.6C216.636 174.6 217.666 174.851 218.464 175.352ZM225.651 175.982C226.35 175.092 227.55 174.646 229.251 174.646C230.358 174.646 231.341 174.866 232.201 175.305C233.061 175.744 233.49 176.573 233.49 177.792V182.43C233.49 182.752 233.497 183.141 233.509 183.599C233.528 183.945 233.58 184.181 233.667 184.304C233.753 184.428 233.883 184.53 234.056 184.61V185H231.18C231.1 184.796 231.044 184.604 231.013 184.425C230.983 184.245 230.958 184.041 230.939 183.812C230.574 184.208 230.154 184.545 229.677 184.824C229.108 185.152 228.465 185.315 227.748 185.315C226.832 185.315 226.075 185.056 225.475 184.536C224.881 184.01 224.584 183.268 224.584 182.31C224.584 181.066 225.064 180.167 226.022 179.61C226.548 179.307 227.321 179.09 228.342 178.96L229.241 178.849C229.73 178.787 230.08 178.71 230.29 178.617C230.667 178.456 230.856 178.206 230.856 177.866C230.856 177.451 230.71 177.167 230.42 177.012C230.135 176.851 229.715 176.771 229.158 176.771C228.533 176.771 228.091 176.926 227.831 177.235C227.646 177.464 227.522 177.773 227.46 178.163H224.909C224.965 177.278 225.212 176.551 225.651 175.982ZM227.618 183.089C227.865 183.293 228.168 183.395 228.527 183.395C229.096 183.395 229.619 183.228 230.095 182.894C230.577 182.56 230.828 181.951 230.846 181.066V180.083C230.679 180.188 230.509 180.275 230.336 180.343C230.169 180.405 229.937 180.463 229.64 180.519L229.047 180.63C228.49 180.729 228.091 180.85 227.85 180.992C227.442 181.233 227.238 181.608 227.238 182.115C227.238 182.566 227.364 182.891 227.618 183.089ZM239.886 177.328C238.822 177.328 238.108 177.674 237.743 178.367C237.539 178.756 237.437 179.356 237.437 180.167V185H234.774V174.888H237.298V176.65C237.706 175.976 238.061 175.515 238.364 175.268C238.859 174.854 239.502 174.646 240.294 174.646C240.344 174.646 240.384 174.65 240.415 174.656C240.452 174.656 240.529 174.659 240.647 174.665V177.374C240.48 177.355 240.331 177.343 240.201 177.337C240.071 177.331 239.966 177.328 239.886 177.328ZM249.816 182.031C249.748 182.631 249.436 183.24 248.879 183.859C248.013 184.842 246.801 185.334 245.242 185.334C243.956 185.334 242.821 184.92 241.837 184.091C240.854 183.262 240.362 181.914 240.362 180.046C240.362 178.296 240.805 176.953 241.689 176.02C242.58 175.086 243.733 174.619 245.15 174.619C245.991 174.619 246.748 174.776 247.422 175.092C248.097 175.407 248.653 175.905 249.092 176.585C249.488 177.185 249.745 177.881 249.862 178.673C249.93 179.137 249.958 179.805 249.946 180.677H243.025C243.062 181.691 243.381 182.402 243.981 182.811C244.345 183.064 244.785 183.191 245.298 183.191C245.842 183.191 246.284 183.036 246.625 182.727C246.81 182.56 246.974 182.328 247.116 182.031H249.816ZM247.2 178.933C247.157 178.234 246.943 177.705 246.56 177.346C246.182 176.981 245.712 176.799 245.15 176.799C244.537 176.799 244.061 176.991 243.721 177.374C243.387 177.757 243.177 178.277 243.09 178.933H247.2ZM254.99 171.325H257.634V185H254.99V171.325ZM261.896 174.888V185H259.215V174.888H261.896ZM261.896 171.242V173.682H259.215V171.242H261.896ZM270.388 175.352C271.18 175.859 271.634 176.731 271.752 177.968H269.108C269.071 177.628 268.975 177.359 268.82 177.161C268.529 176.802 268.035 176.623 267.336 176.623C266.761 176.623 266.349 176.712 266.102 176.892C265.861 177.071 265.74 177.281 265.74 177.522C265.74 177.826 265.87 178.045 266.13 178.181C266.389 178.323 267.308 178.568 268.885 178.914C269.936 179.161 270.725 179.536 271.251 180.037C271.77 180.544 272.03 181.178 272.03 181.938C272.03 182.94 271.656 183.76 270.908 184.397C270.165 185.028 269.015 185.343 267.456 185.343C265.867 185.343 264.692 185.009 263.931 184.341C263.176 183.667 262.799 182.811 262.799 181.771H265.48C265.536 182.242 265.657 182.576 265.842 182.773C266.17 183.126 266.776 183.302 267.66 183.302C268.18 183.302 268.591 183.225 268.894 183.07C269.204 182.916 269.358 182.684 269.358 182.375C269.358 182.078 269.234 181.852 268.987 181.697C268.74 181.543 267.821 181.277 266.232 180.899C265.088 180.615 264.28 180.259 263.81 179.833C263.34 179.412 263.105 178.806 263.105 178.014C263.105 177.08 263.47 176.279 264.2 175.611C264.936 174.937 265.969 174.6 267.299 174.6C268.56 174.6 269.59 174.851 270.388 175.352ZM277.581 183.117V185.093L276.329 185.139C275.079 185.182 274.226 184.966 273.768 184.49C273.471 184.187 273.323 183.72 273.323 183.089V176.864H271.913V174.98H273.323V172.16H275.939V174.98H277.581V176.864H275.939V182.208C275.939 182.622 275.992 182.882 276.097 182.987C276.202 183.086 276.524 183.135 277.062 183.135C277.142 183.135 277.226 183.135 277.312 183.135C277.405 183.129 277.495 183.123 277.581 183.117ZM286.89 182.031C286.822 182.631 286.509 183.24 285.953 183.859C285.087 184.842 283.875 185.334 282.316 185.334C281.03 185.334 279.895 184.92 278.911 184.091C277.928 183.262 277.436 181.914 277.436 180.046C277.436 178.296 277.878 176.953 278.763 176.02C279.653 175.086 280.807 174.619 282.223 174.619C283.064 174.619 283.822 174.776 284.496 175.092C285.17 175.407 285.727 175.905 286.166 176.585C286.562 177.185 286.819 177.881 286.936 178.673C287.004 179.137 287.032 179.805 287.02 180.677H280.099C280.136 181.691 280.454 182.402 281.054 182.811C281.419 183.064 281.858 183.191 282.372 183.191C282.916 183.191 283.358 183.036 283.698 182.727C283.884 182.56 284.048 182.328 284.19 182.031H286.89ZM284.274 178.933C284.23 178.234 284.017 177.705 283.633 177.346C283.256 176.981 282.786 176.799 282.223 176.799C281.611 176.799 281.135 176.991 280.795 177.374C280.461 177.757 280.25 178.277 280.164 178.933H284.274ZM292.524 176.845C291.628 176.845 291.012 177.226 290.678 177.986C290.505 178.388 290.418 178.902 290.418 179.526V185H287.784V174.906H290.335V176.381C290.675 175.862 290.997 175.488 291.3 175.259C291.844 174.851 292.534 174.646 293.369 174.646C294.414 174.646 295.267 174.922 295.929 175.472C296.597 176.016 296.931 176.923 296.931 178.19V185H294.222V178.849C294.222 178.317 294.151 177.909 294.009 177.625C293.749 177.105 293.254 176.845 292.524 176.845ZM301.054 174.888V185H298.373V174.888H301.054ZM301.054 171.242V173.682H298.373V171.242H301.054ZM307.338 176.845C306.441 176.845 305.826 177.226 305.492 177.986C305.318 178.388 305.232 178.902 305.232 179.526V185H302.597V174.906H305.148V176.381C305.488 175.862 305.81 175.488 306.113 175.259C306.657 174.851 307.347 174.646 308.182 174.646C309.227 174.646 310.081 174.922 310.743 175.472C311.411 176.016 311.745 176.923 311.745 178.19V185H309.036V178.849C309.036 178.317 308.964 177.909 308.822 177.625C308.562 177.105 308.068 176.845 307.338 176.845ZM316.006 186.772C316.291 187.013 316.77 187.134 317.444 187.134C318.397 187.134 319.034 186.815 319.355 186.178C319.566 185.77 319.671 185.083 319.671 184.119V183.469C319.417 183.902 319.145 184.227 318.854 184.443C318.329 184.845 317.645 185.046 316.804 185.046C315.505 185.046 314.466 184.592 313.687 183.683C312.914 182.767 312.527 181.53 312.527 179.972C312.527 178.469 312.901 177.207 313.65 176.187C314.398 175.16 315.459 174.646 316.832 174.646C317.339 174.646 317.781 174.724 318.159 174.878C318.802 175.144 319.321 175.633 319.717 176.344V174.888H322.287V184.48C322.287 185.785 322.067 186.769 321.628 187.431C320.874 188.569 319.426 189.138 317.286 189.138C315.994 189.138 314.939 188.884 314.123 188.377C313.306 187.87 312.855 187.112 312.768 186.104H315.644C315.719 186.413 315.839 186.636 316.006 186.772ZM315.561 181.549C315.92 182.402 316.563 182.829 317.491 182.829C318.109 182.829 318.632 182.597 319.058 182.133C319.485 181.663 319.699 180.918 319.699 179.897C319.699 178.939 319.494 178.209 319.086 177.708C318.684 177.207 318.143 176.957 317.463 176.957C316.535 176.957 315.895 177.393 315.542 178.265C315.357 178.729 315.264 179.301 315.264 179.981C315.264 180.569 315.363 181.091 315.561 181.549ZM332.591 183.117V185.093L331.339 185.139C330.09 185.182 329.236 184.966 328.778 184.49C328.482 184.187 328.333 183.72 328.333 183.089V176.864H326.923V174.98H328.333V172.16H330.949V174.98H332.591V176.864H330.949V182.208C330.949 182.622 331.002 182.882 331.107 182.987C331.212 183.086 331.534 183.135 332.072 183.135C332.152 183.135 332.236 183.135 332.322 183.135C332.415 183.129 332.505 183.123 332.591 183.117ZM341.677 176.168C342.531 177.238 342.958 178.503 342.958 179.962C342.958 181.447 342.531 182.718 341.677 183.775C340.824 184.827 339.528 185.353 337.79 185.353C336.052 185.353 334.756 184.827 333.903 183.775C333.049 182.718 332.623 181.447 332.623 179.962C332.623 178.503 333.049 177.238 333.903 176.168C334.756 175.098 336.052 174.563 337.79 174.563C339.528 174.563 340.824 175.098 341.677 176.168ZM337.781 176.799C337.008 176.799 336.411 177.074 335.99 177.625C335.576 178.169 335.369 178.948 335.369 179.962C335.369 180.977 335.576 181.759 335.99 182.31C336.411 182.86 337.008 183.135 337.781 183.135C338.554 183.135 339.148 182.86 339.562 182.31C339.976 181.759 340.184 180.977 340.184 179.962C340.184 178.948 339.976 178.169 339.562 177.625C339.148 177.074 338.554 176.799 337.781 176.799ZM343.768 182.235H346.579V185H343.768V182.235Z" fill="white"/>
<path d="M159.172 94.2417V96.394C159.023 96.3755 158.773 96.3631 158.42 96.3569C158.074 96.3446 157.833 96.4219 157.697 96.5889C157.567 96.7497 157.502 96.929 157.502 97.127V97.9805H159.237V99.8452H157.502V108H154.867V99.8452H153.392V97.9805H154.839V97.3311C154.839 96.2487 155.022 95.5034 155.387 95.0952C155.77 94.4891 156.695 94.186 158.161 94.186C158.328 94.186 158.479 94.1922 158.615 94.2046C158.751 94.2108 158.937 94.2231 159.172 94.2417ZM168.146 99.168C169 100.238 169.427 101.503 169.427 102.962C169.427 104.447 169 105.718 168.146 106.775C167.293 107.827 165.997 108.353 164.259 108.353C162.521 108.353 161.225 107.827 160.372 106.775C159.518 105.718 159.092 104.447 159.092 102.962C159.092 101.503 159.518 100.238 160.372 99.168C161.225 98.098 162.521 97.563 164.259 97.563C165.997 97.563 167.293 98.098 168.146 99.168ZM164.25 99.7988C163.477 99.7988 162.88 100.074 162.459 100.625C162.045 101.169 161.838 101.948 161.838 102.962C161.838 103.977 162.045 104.759 162.459 105.31C162.88 105.86 163.477 106.135 164.25 106.135C165.023 106.135 165.617 105.86 166.031 105.31C166.445 104.759 166.653 103.977 166.653 102.962C166.653 101.948 166.445 101.169 166.031 100.625C165.617 100.074 165.023 99.7988 164.25 99.7988ZM175.367 100.328C174.304 100.328 173.589 100.674 173.224 101.367C173.02 101.756 172.918 102.356 172.918 103.167V108H170.256V97.8877H172.779V99.6504C173.187 98.9762 173.543 98.5155 173.846 98.2681C174.341 97.8537 174.984 97.6465 175.776 97.6465C175.825 97.6465 175.865 97.6496 175.896 97.6558C175.933 97.6558 176.011 97.6589 176.128 97.665V100.374C175.961 100.355 175.813 100.343 175.683 100.337C175.553 100.331 175.448 100.328 175.367 100.328ZM186.062 106.024C186.736 106.024 187.283 105.95 187.704 105.801C188.502 105.517 188.9 104.988 188.9 104.215C188.9 103.763 188.703 103.414 188.307 103.167C187.911 102.925 187.289 102.712 186.442 102.526L184.995 102.202C183.572 101.88 182.589 101.531 182.045 101.153C181.123 100.522 180.662 99.536 180.662 98.1938C180.662 96.9692 181.107 95.9518 181.998 95.1416C182.889 94.3314 184.197 93.9263 185.922 93.9263C187.364 93.9263 188.591 94.3097 189.606 95.0767C190.626 95.8374 191.161 96.9445 191.211 98.3979H188.464C188.415 97.5754 188.056 96.9909 187.388 96.6445C186.943 96.4157 186.389 96.3013 185.728 96.3013C184.992 96.3013 184.404 96.4497 183.965 96.7466C183.526 97.0435 183.306 97.4578 183.306 97.9897C183.306 98.4784 183.523 98.8433 183.956 99.0845C184.234 99.2453 184.828 99.4339 185.737 99.6504L188.093 100.216C189.126 100.464 189.906 100.795 190.431 101.209C191.248 101.852 191.656 102.783 191.656 104.001C191.656 105.251 191.177 106.29 190.218 107.119C189.265 107.941 187.917 108.353 186.173 108.353C184.392 108.353 182.991 107.947 181.97 107.137C180.95 106.321 180.44 105.201 180.44 103.779H183.167C183.254 104.403 183.424 104.87 183.677 105.18C184.141 105.743 184.936 106.024 186.062 106.024ZM200.983 98.9731C201.799 99.8452 202.208 101.125 202.208 102.814C202.208 104.595 201.806 105.953 201.001 106.887C200.204 107.821 199.174 108.288 197.912 108.288C197.108 108.288 196.44 108.087 195.908 107.685C195.618 107.462 195.333 107.137 195.055 106.71V111.98H192.438V97.8877H194.971V99.3813C195.256 98.9422 195.559 98.5959 195.88 98.3423C196.468 97.8908 197.167 97.665 197.977 97.665C199.158 97.665 200.16 98.1011 200.983 98.9731ZM199.48 102.944C199.48 102.165 199.301 101.475 198.942 100.875C198.589 100.275 198.014 99.9751 197.216 99.9751C196.258 99.9751 195.599 100.43 195.24 101.339C195.055 101.821 194.962 102.434 194.962 103.176C194.962 104.351 195.274 105.177 195.899 105.653C196.27 105.931 196.709 106.07 197.216 106.07C197.952 106.07 198.512 105.786 198.896 105.217C199.285 104.648 199.48 103.89 199.48 102.944ZM211.516 99.168C212.37 100.238 212.796 101.503 212.796 102.962C212.796 104.447 212.37 105.718 211.516 106.775C210.663 107.827 209.367 108.353 207.629 108.353C205.891 108.353 204.595 107.827 203.742 106.775C202.888 105.718 202.461 104.447 202.461 102.962C202.461 101.503 202.888 100.238 203.742 99.168C204.595 98.098 205.891 97.563 207.629 97.563C209.367 97.563 210.663 98.098 211.516 99.168ZM207.62 99.7988C206.846 99.7988 206.25 100.074 205.829 100.625C205.415 101.169 205.207 101.948 205.207 102.962C205.207 103.977 205.415 104.759 205.829 105.31C206.25 105.86 206.846 106.135 207.62 106.135C208.393 106.135 208.986 105.86 209.401 105.31C209.815 104.759 210.022 103.977 210.022 102.962C210.022 101.948 209.815 101.169 209.401 100.625C208.986 100.074 208.393 99.7988 207.62 99.7988ZM218.283 106.117V108.093L217.03 108.139C215.781 108.182 214.927 107.966 214.47 107.49C214.173 107.187 214.024 106.72 214.024 106.089V99.8638H212.614V97.9805H214.024V95.1602H216.64V97.9805H218.283V99.8638H216.64V105.208C216.64 105.622 216.693 105.882 216.798 105.987C216.903 106.086 217.225 106.135 217.763 106.135C217.843 106.135 217.927 106.135 218.014 106.135C218.106 106.129 218.196 106.123 218.283 106.117ZM221.654 97.8877V108H218.972V97.8877H221.654ZM221.654 94.2417V96.6816H218.972V94.2417H221.654ZM227.919 94.2417V96.394C227.771 96.3755 227.52 96.3631 227.168 96.3569C226.821 96.3446 226.58 96.4219 226.444 96.5889C226.314 96.7497 226.249 96.929 226.249 97.127V97.9805H227.984V99.8452H226.249V108H223.614V99.8452H222.139V97.9805H223.587V97.3311C223.587 96.2487 223.769 95.5034 224.134 95.0952C224.517 94.4891 225.442 94.186 226.908 94.186C227.075 94.186 227.226 94.1922 227.362 94.2046C227.499 94.2108 227.684 94.2231 227.919 94.2417ZM232.57 105.347L234.658 97.8877H237.469L233.999 107.833C233.331 109.75 232.802 110.938 232.413 111.396C232.023 111.859 231.244 112.091 230.075 112.091C229.84 112.091 229.651 112.088 229.509 112.082C229.367 112.082 229.153 112.073 228.869 112.054V109.939L229.203 109.958C229.463 109.97 229.71 109.961 229.945 109.93C230.18 109.899 230.378 109.828 230.539 109.716C230.693 109.611 230.836 109.392 230.965 109.058C231.101 108.724 231.157 108.52 231.132 108.445L227.421 97.8877H230.362L232.57 105.347Z" fill="white"/>
<g filter="url(#filter0_d_121_6)">
<path d="M56.0986 73.7998C57.8727 73.7998 59.3132 73.6045 60.4199 73.2139C62.5195 72.4652 63.5693 71.0736 63.5693 69.0391C63.5693 67.8509 63.0485 66.9313 62.0068 66.2803C60.9652 65.6455 59.3294 65.084 57.0996 64.5957L53.291 63.7412C49.5475 62.8949 46.9596 61.9753 45.5273 60.9824C43.1022 59.3223 41.8896 56.7262 41.8896 53.1943C41.8896 49.9717 43.0615 47.2943 45.4053 45.1621C47.749 43.0299 51.1914 41.9639 55.7324 41.9639C59.5247 41.9639 62.7555 42.973 65.4248 44.9912C68.1104 46.9932 69.5182 49.9066 69.6484 53.7314H62.4219C62.2917 51.5667 61.3477 50.0286 59.5898 49.1172C58.418 48.515 56.9613 48.2139 55.2197 48.2139C53.2829 48.2139 51.7367 48.6045 50.5811 49.3857C49.4255 50.167 48.8477 51.2575 48.8477 52.6572C48.8477 53.943 49.4173 54.9033 50.5566 55.5381C51.2891 55.9613 52.8516 56.4577 55.2441 57.0273L61.4453 58.5166C64.1634 59.1676 66.2142 60.0384 67.5977 61.1289C69.7461 62.8216 70.8203 65.2712 70.8203 68.4775C70.8203 71.7653 69.5589 74.4997 67.0361 76.6807C64.5296 78.8454 60.9814 79.9277 56.3916 79.9277C51.7041 79.9277 48.0176 78.8617 45.332 76.7295C42.6465 74.5811 41.3037 71.6351 41.3037 67.8916H48.4814C48.7093 69.5355 49.1569 70.7643 49.8242 71.5781C51.0449 73.0592 53.1364 73.7998 56.0986 73.7998ZM95.3652 55.2451C97.5137 57.54 98.5879 60.9092 98.5879 65.3525C98.5879 70.04 97.5299 73.6126 95.4141 76.0703C93.3145 78.528 90.6045 79.7568 87.2842 79.7568C85.1683 79.7568 83.4105 79.2279 82.0107 78.1699C81.2458 77.584 80.4971 76.7295 79.7646 75.6064V89.4736H72.8799V52.3887H79.5449V56.3193C80.2936 55.1637 81.0911 54.2523 81.9375 53.585C83.4837 52.3968 85.3229 51.8027 87.4551 51.8027C90.5638 51.8027 93.2005 52.9502 95.3652 55.2451ZM91.4102 65.6943C91.4102 63.6436 90.9382 61.8288 89.9941 60.25C89.0664 58.6712 87.5527 57.8818 85.4531 57.8818C82.9303 57.8818 81.1969 59.0781 80.2529 61.4707C79.7646 62.7402 79.5205 64.3516 79.5205 66.3047C79.5205 69.3971 80.3424 71.57 81.9863 72.8232C82.9629 73.5557 84.1185 73.9219 85.4531 73.9219C87.39 73.9219 88.863 73.1732 89.8721 71.6758C90.8975 70.1784 91.4102 68.1846 91.4102 65.6943ZM123.084 55.7578C125.33 58.5736 126.453 61.902 126.453 65.7432C126.453 69.6494 125.33 72.9941 123.084 75.7773C120.838 78.5443 117.428 79.9277 112.854 79.9277C108.281 79.9277 104.871 78.5443 102.625 75.7773C100.379 72.9941 99.2559 69.6494 99.2559 65.7432C99.2559 61.902 100.379 58.5736 102.625 55.7578C104.871 52.9421 108.281 51.5342 112.854 51.5342C117.428 51.5342 120.838 52.9421 123.084 55.7578ZM112.83 57.418C110.796 57.418 109.225 58.1423 108.118 59.5908C107.028 61.0231 106.482 63.0739 106.482 65.7432C106.482 68.4124 107.028 70.4714 108.118 71.9199C109.225 73.3685 110.796 74.0928 112.83 74.0928C114.865 74.0928 116.427 73.3685 117.518 71.9199C118.608 70.4714 119.153 68.4124 119.153 65.7432C119.153 63.0739 118.608 61.0231 117.518 59.5908C116.427 58.1423 114.865 57.418 112.83 57.418ZM140.891 74.0439V79.2441L137.595 79.3662C134.307 79.4801 132.061 78.9105 130.856 77.6572C130.075 76.8597 129.685 75.6309 129.685 73.9707V57.5889H125.974V52.6328H129.685V45.2109H136.569V52.6328H140.891V57.5889H136.569V71.6514C136.569 72.7419 136.708 73.4255 136.984 73.7021C137.261 73.9626 138.107 74.0928 139.523 74.0928C139.735 74.0928 139.955 74.0928 140.183 74.0928C140.427 74.0765 140.663 74.0602 140.891 74.0439ZM149.762 52.3887V79H142.706V52.3887H149.762ZM149.762 42.7939V49.2148H142.706V42.7939H149.762ZM166.25 42.7939V48.458C165.859 48.4092 165.2 48.3766 164.272 48.3604C163.361 48.3278 162.726 48.5312 162.368 48.9707C162.026 49.3939 161.855 49.8659 161.855 50.3867V52.6328H166.421V57.54H161.855V79H154.922V57.54H151.04V52.6328H154.849V50.9238C154.849 48.0755 155.329 46.1143 156.289 45.04C157.298 43.445 159.731 42.6475 163.589 42.6475C164.028 42.6475 164.427 42.6637 164.785 42.6963C165.143 42.7126 165.632 42.7451 166.25 42.7939ZM178.49 72.0176L183.983 52.3887H191.381L182.25 78.5605C180.492 83.6061 179.101 86.7311 178.075 87.9355C177.05 89.1562 174.999 89.7666 171.923 89.7666C171.304 89.7666 170.808 89.7585 170.434 89.7422C170.059 89.7422 169.498 89.7178 168.749 89.6689V84.1025L169.628 84.1514C170.312 84.1839 170.963 84.1595 171.581 84.0781C172.2 83.9967 172.72 83.8096 173.144 83.5166C173.55 83.2399 173.925 82.6621 174.267 81.7832C174.625 80.9043 174.771 80.3672 174.706 80.1719L164.94 52.3887H172.68L178.49 72.0176ZM218.831 49.3857H200.789V57.6621H216.585V63.9121H200.789V79H193.318V43.0625H218.831V49.3857ZM233.952 58.8096C231.153 58.8096 229.273 59.721 228.312 61.5439C227.775 62.5693 227.507 64.1481 227.507 66.2803V79H220.5V52.3887H227.141V57.0273C228.215 55.2533 229.151 54.0407 229.948 53.3896C231.25 52.2992 232.943 51.7539 235.026 51.7539C235.157 51.7539 235.262 51.762 235.344 51.7783C235.441 51.7783 235.645 51.7865 235.954 51.8027V58.9316C235.515 58.8828 235.124 58.8503 234.782 58.834C234.44 58.8177 234.164 58.8096 233.952 58.8096ZM244.459 52.3887V79H237.403V52.3887H244.459ZM244.459 42.7939V49.2148H237.403V42.7939H244.459ZM271.25 71.1875C271.071 72.7663 270.249 74.3695 268.784 75.9971C266.506 78.585 263.315 79.8789 259.214 79.8789C255.828 79.8789 252.842 78.7884 250.254 76.6074C247.666 74.4264 246.372 70.8783 246.372 65.9629C246.372 61.3568 247.536 57.8249 249.863 55.3672C252.207 52.9095 255.243 51.6807 258.97 51.6807C261.183 51.6807 263.177 52.0957 264.951 52.9258C266.725 53.7559 268.19 55.0661 269.346 56.8564C270.387 58.4352 271.063 60.2663 271.372 62.3496C271.551 63.5703 271.624 65.3281 271.592 67.623H253.379C253.477 70.2923 254.315 72.1641 255.894 73.2383C256.854 73.9056 258.009 74.2393 259.36 74.2393C260.793 74.2393 261.956 73.8324 262.852 73.0186C263.34 72.5791 263.771 71.9688 264.146 71.1875H271.25ZM264.365 63.0332C264.251 61.194 263.69 59.8024 262.681 58.8584C261.688 57.8981 260.451 57.418 258.97 57.418C257.358 57.418 256.105 57.9225 255.21 58.9316C254.331 59.9408 253.778 61.3079 253.55 63.0332H264.365ZM286.078 57.54C283.718 57.54 282.099 58.541 281.22 60.543C280.764 61.6009 280.536 62.9518 280.536 64.5957V79H273.603V52.4375H280.316V56.3193C281.212 54.9521 282.058 53.9674 282.855 53.3652C284.288 52.291 286.103 51.7539 288.3 51.7539C291.05 51.7539 293.297 52.4782 295.038 53.9268C296.796 55.359 297.675 57.7435 297.675 61.0801V79H290.546V62.8135C290.546 61.4137 290.359 60.3395 289.984 59.5908C289.301 58.2236 287.999 57.54 286.078 57.54ZM325.589 43.0625V79H318.826V75.3135C317.833 76.8923 316.702 78.0397 315.433 78.7559C314.163 79.472 312.584 79.8301 310.696 79.8301C307.588 79.8301 304.967 78.5768 302.835 76.0703C300.719 73.5475 299.661 70.3167 299.661 66.3779C299.661 61.8369 300.703 58.2643 302.786 55.6602C304.886 53.056 307.685 51.7539 311.185 51.7539C312.796 51.7539 314.228 52.112 315.481 52.8281C316.735 53.528 317.752 54.5046 318.533 55.7578V43.0625H325.589ZM306.839 65.8652C306.839 68.3229 307.327 70.2842 308.304 71.749C309.264 73.2301 310.729 73.9707 312.698 73.9707C314.668 73.9707 316.165 73.2383 317.19 71.7734C318.216 70.3086 318.729 68.4124 318.729 66.085C318.729 62.8298 317.907 60.5023 316.263 59.1025C315.254 58.2562 314.082 57.833 312.747 57.833C310.713 57.833 309.215 58.6061 308.255 60.1523C307.311 61.6823 306.839 63.5866 306.839 65.8652ZM347.521 53.6094C349.605 54.944 350.801 57.2389 351.11 60.4941H344.152C344.055 59.599 343.802 58.891 343.396 58.3701C342.631 57.4261 341.328 56.9541 339.489 56.9541C337.976 56.9541 336.893 57.1901 336.242 57.6621C335.607 58.1341 335.29 58.6875 335.29 59.3223C335.29 60.1198 335.632 60.6976 336.315 61.0557C336.999 61.43 339.416 62.0729 343.566 62.9844C346.333 63.6354 348.409 64.6201 349.792 65.9385C351.159 67.2731 351.843 68.9414 351.843 70.9434C351.843 73.5801 350.858 75.7367 348.889 77.4131C346.936 79.0732 343.908 79.9033 339.807 79.9033C335.624 79.9033 332.531 79.0244 330.529 77.2666C328.544 75.4925 327.551 73.2383 327.551 70.5039H334.606C334.753 71.7409 335.07 72.6198 335.559 73.1406C336.421 74.0684 338.016 74.5322 340.344 74.5322C341.711 74.5322 342.793 74.3288 343.591 73.9219C344.405 73.515 344.812 72.9046 344.812 72.0908C344.812 71.3096 344.486 70.7155 343.835 70.3086C343.184 69.9017 340.767 69.2018 336.584 68.209C333.573 67.4603 331.449 66.5244 330.212 65.4014C328.975 64.2946 328.356 62.6995 328.356 60.6162C328.356 58.1585 329.317 56.0508 331.237 54.293C333.174 52.5189 335.892 51.6318 339.392 51.6318C342.712 51.6318 345.422 52.291 347.521 53.6094Z" fill="white"/>
</g>
<path d="M246.583 96.8574C247.286 97.5605 247.638 98.4085 247.638 99.4014C247.638 100.424 247.278 101.285 246.559 101.984C245.859 102.661 245.019 103 244.039 103C243.027 103 242.174 102.653 241.48 101.96C240.787 101.267 240.44 100.414 240.44 99.4014C240.44 98.3499 240.815 97.4759 241.563 96.7793C242.267 96.1283 243.092 95.8027 244.039 95.8027C245.032 95.8027 245.88 96.1543 246.583 96.8574ZM244.039 96.418C243.212 96.418 242.507 96.7174 241.925 97.3164C241.352 97.9023 241.065 98.5973 241.065 99.4014C241.065 100.235 241.357 100.943 241.939 101.525C242.519 102.108 243.219 102.399 244.039 102.399C244.856 102.399 245.554 102.106 246.134 101.521C246.713 100.931 247.003 100.225 247.003 99.4014C247.003 98.6006 246.715 97.9056 246.139 97.3164C245.556 96.7174 244.856 96.418 244.039 96.418ZM243.507 99.9922L243.507 101.403L242.462 101.403L242.462 97.4141C242.709 97.4141 243.079 97.4157 243.57 97.4189C244.065 97.4189 244.34 97.4206 244.396 97.4238C244.711 97.4466 244.973 97.515 245.182 97.6289C245.536 97.8242 245.714 98.1416 245.714 98.5811C245.714 98.9163 245.619 99.1589 245.431 99.3086C245.245 99.4583 245.016 99.5479 244.742 99.5771C244.993 99.6292 245.182 99.7057 245.309 99.8066C245.543 99.9954 245.66 100.293 245.66 100.7L245.66 101.057C245.66 101.096 245.662 101.135 245.665 101.174C245.672 101.213 245.681 101.252 245.694 101.291L245.729 101.403L244.732 101.403C244.7 101.276 244.679 101.092 244.669 100.852C244.659 100.611 244.638 100.448 244.605 100.363C244.553 100.223 244.456 100.126 244.312 100.07C244.234 100.038 244.116 100.017 243.956 100.007L243.727 99.9922L243.507 99.9922ZM243.912 99.2744C244.156 99.2744 244.347 99.2256 244.483 99.1279C244.62 99.0303 244.688 98.8724 244.688 98.6543C244.688 98.4362 244.581 98.2848 244.366 98.2002C244.223 98.1449 244.021 98.1172 243.761 98.1172L243.507 98.1172L243.507 99.2744L243.912 99.2744Z" fill="white"/>
<defs>
<filter id="filter0_d_121_6" x="37.3037" y="39.9639" width="318.539" height="55.8027" filterUnits="userSpaceOnUse" color-interpolation-filters="sRGB">
<feFlood flood-opacity="0" result="BackgroundImageFix"/>
<feColorMatrix in="SourceAlpha" type="matrix" values="0 0 0 0 0 0 0 0 0 0 0 0 0 0 0 0 0 0 127 0" result="hardAlpha"/>
<feOffset dy="2"/>
<feGaussianBlur stdDeviation="2"/>
<feComposite in2="hardAlpha" operator="out"/>
<feColorMatrix type="matrix" values="0 0 0 0 0 0 0 0 0 0 0 0 0 0 0 0 0 0 0.1 0"/>
<feBlend mode="normal" in2="BackgroundImageFix" result="effect1_dropShadow_121_6"/>
<feBlend mode="normal" in="SourceGraphic" in2="effect1_dropShadow_121_6" result="shape"/>
</filter>
</defs>
</svg>
